<?xml version="1.0" encoding="UTF-8" standalone="no"?>
<svg
   xmlns:dc="http://purl.org/dc/elements/1.1/"
   xmlns:cc="http://creativecommons.org/ns#"
   xmlns:rdf="http://www.w3.org/1999/02/22-rdf-syntax-ns#"
   xmlns:svg="http://www.w3.org/2000/svg"
   xmlns="http://www.w3.org/2000/svg"
   viewBox="0 0 688.73749 98.512497"
   height="98.512497"
   width="688.73749"
   xml:space="preserve"
   version="1.1"
   id="svg2">
  <title>New Scientist</title>
   <metadata
     id="metadata8"><rdf:RDF><cc:Work
         rdf:about=""><dc:format>image/svg+xml</dc:format><dc:type
           rdf:resource="http://purl.org/dc/dcmitype/StillImage" /></cc:Work></rdf:RDF></metadata><defs
     id="defs6" /><g
     transform="matrix(1.25,0,0,-1.25,0,98.5125)"
     id="g10"><g
       transform="scale(0.1,0.1)"
       id="g12"><path
         id="path14"
         style="fill:#231f20;fill-opacity:1;fill-rule:nonzero;stroke:none"
         d="M 1526.15,17.6758 1451.36,339.969 1379.28,17.6758 1217.25,17.4609 1084.22,626.16 l 166.49,0.031 58.56,-306.222 65,306.222 155,-0.031 68.73,-305.976 64.53,305.976 163.81,0 -138.14,-608.5545 -162.05,0.0703" /><path
         id="path16"
         style="fill:#231f20;fill-opacity:1;fill-rule:nonzero;stroke:none"
         d="m 2847.1,17.5078 172.02,0 0,589.668 -172.02,0 0,-589.668 z" /><path
         id="path18"
         style="fill:#231f20;fill-opacity:1;fill-rule:nonzero;stroke:none"
         d="m 4499.85,16.9258 172.047,0 0,589.84 -172.047,0 0,-589.84 z" /><path
         id="path20"
         style="fill:#231f20;fill-opacity:1;fill-rule:nonzero;stroke:none"
         d="m 3411.43,416.844 c 0,79.511 -35.97,95.644 -93.89,95.644 -65.56,0 -87.42,-30.008 -90.96,-101.433 -1.62,-29.864 -0.5,-33.75 -0.5,-33.75 l 185.62,-0.293 -0.27,39.832 z M 3225.48,267.137 c 0,-60.211 9.91,-97.379 41.47,-112.442 17.7,-7.519 49.98,-12.957 80.28,-12.957 59.39,0 136.68,8.828 204.49,35.637 l 0,-137.4336 C 3466.52,12.2969 3394.57,4.26563 3327.6,4.26563 c -94.74,0 -162.93,20.07027 -204.63,58.96487 -53.05,48.9065 -70.74,130.4215 -70.74,254.5705 0,110.375 11.36,184.355 50.52,239.535 37.89,53.941 107.38,82.793 218.54,82.793 104.82,0 166.76,-26.352 203.36,-77.758 39.18,-56.445 44.22,-135.445 44.22,-215.723 l -0.65,-80.269 -334.67,0.769 -8.07,-0.011" /><path
         id="path22"
         style="fill:#231f20;fill-opacity:1;fill-rule:nonzero;stroke:none"
         d="m 2650.1,2.38281 c -207.15,0 -263.4,80.49999 -263.4,318.14419 0,250.243 61.37,319.403 274.92,319.403 71.2,-0.879 134.71,-21.785 149.1,-29.762 l 0.04,-147.617 c -36.8,16.355 -86.09,34.215 -146.59,35.293 -60.11,0 -91.89,-15.547 -98.28,-60.813 -6.4,-40.246 -7.67,-94.316 -7.67,-116.941 0,-36.469 2.54,-71.692 7.67,-105.637 7.66,-45.265 39.45,-68.711 99.56,-68.711 42.2,0 93.34,5.028 145.76,21.375 L 2810.99,21.5234 C 2752.93,4.74609 2698.69,2.38281 2650.1,2.38281" /><path
         id="path24"
         style="fill:#231f20;fill-opacity:1;fill-rule:nonzero;stroke:none"
         d="m 2847.1,692.551 0,-52.051 172.02,0 0,108.848 c -84.55,3.066 -155.71,-44.883 -172.02,-56.797" /><path
         id="path26"
         style="fill:#231f20;fill-opacity:1;fill-rule:nonzero;stroke:none"
         d="m 4499.85,691.34 0,-51.86 172.05,0 0,109.25 c -85.5,2.786 -157.22,-46.453 -172.05,-57.39" /><path
         id="path28"
         style="fill:#231f20;fill-opacity:1;fill-rule:nonzero;stroke:none"
         d="m 3944.34,632.234 c -70.96,0 -127.99,-31.441 -167.29,-59.097 l -16.78,49.937 c -76.09,-0.691 -139.57,-42.058 -158.12,-55.457 l 0,-550.2928 170.58,0 -0.41,408.4958 c 22.84,15.086 80.38,39.168 110.82,39.168 49.44,0 61.82,-41.804 61.82,-80.8 l -0.19,-366.9692 163.08,0.1054 0,446.3948 c 0,67.914 -41.83,168.515 -163.51,168.515" /><path
         id="path30"
         style="fill:#231f20;fill-opacity:1;fill-rule:nonzero;stroke:none"
         d="m 935.719,413.66 c 0,79.727 -35.957,95.91 -93.867,95.91 -65.547,0 -87.422,-30.097 -90.957,-101.711 -1.633,-29.949 -0.489,-33.847 -0.489,-33.847 l 185.586,-0.293 -0.273,39.941 z M 749.801,263.555 c 0,-60.371 9.902,-97.649 41.472,-112.735 17.688,-7.539 49.961,-13 80.274,-13 59.367,0 136.673,8.868 204.493,35.727 l 0,-137.7853 C 990.816,8.02734 918.863,0 851.91,0 757.172,0 688.961,20.1172 647.281,59.1016 594.234,108.145 576.539,189.875 576.539,314.363 c 0,110.664 11.367,184.848 50.527,240.18 37.891,54.059 107.383,82.996 218.536,82.996 104.832,0 166.738,-26.418 203.368,-77.969 39.16,-56.593 44.21,-135.8 44.21,-216.281 l -0.64,-80.484 -334.673,0.769 -8.066,-0.019" /><path
         id="path32"
         style="fill:#231f20;fill-opacity:1;fill-rule:nonzero;stroke:none"
         d="m 2084.14,168.789 c 79.73,2.813 87.64,46.641 87.34,65.371 -0.85,53.028 -52.72,70.613 -146.89,102.551 l -5.97,2.027 c -86.43,30.215 -168.15,58.789 -170.3,193.457 -1.44,90.559 16.91,152.071 57.78,193.606 40.72,41.359 105.46,62.336 192.45,62.336 60.32,0 172.17,-12.832 226.27,-40.215 0,-8.086 -0.05,-150.863 -0.06,-171.352 -44.91,22.11 -133.2,51.352 -214.88,49.571 -56.41,-1.219 -82.38,-21.7 -81.7,-64.461 0.65,-40.11 35.94,-52.344 89.38,-70.852 29.87,-10.351 67.05,-23.23 108.91,-44.355 76.85,-40.133 127.42,-75.426 129.34,-195.203 1.26,-79.114 -18.43,-139.903 -58.56,-180.6841 -44,-44.6875 -114.47,-67.35543 -209.46,-67.35543 -104.92,0 -193.11,27.46093 -239.01,45.06253 0,8.9336 -0.01,147.129 -0.01,168.016 62.1,-34.239 143.01,-50.774 235.37,-47.52" /><path
         id="path34"
         style="fill:#231f20;fill-opacity:1;fill-rule:nonzero;stroke:none"
         d="m 4919.17,3.14453 c -88.13,0 -165.08,20.07027 -213.91,37.61717 l -0.02,147.4293 c 54.56,-30.371 130.24,-44.492 213.72,-41.804 49.72,1.59 70.15,20.996 69.7,46.082 -0.68,38.886 -46.87,51.418 -131.6,77.746 -78.34,25.066 -150.27,48.887 -152.21,159.219 -1.73,100.3 27.02,209.375 223.68,209.375 57.46,0 157.53,-11.512 202.85,-34.172 l -0.08,-149.375 c -33.32,16.996 -119.42,44.66 -195.45,43.156 -49.79,-0.996 -65.21,-17.781 -64.75,-45.363 0.78,-43.883 70.94,-40.117 171.35,-86.504 70.82,-33.856 114.14,-63.758 115.82,-160.301 2.38,-136.6602 -78.2,-203.10547 -239.1,-203.10547" /><path
         id="path36"
         style="fill:#231f20;fill-opacity:1;fill-rule:nonzero;stroke:none"
         d="m 4380.9,150.652 c -72.19,-1.972 -62.66,58.762 -62.85,101.352 -0.22,42.594 0.21,223.164 0.21,223.164 l 145.24,0 0.09,131.805 -145.72,-0.262 -0.31,170.254 c -91.47,1.933 -166.6,-55.11 -172.07,-59.367 l 0,-96.551 -0.1,-14.043 c 0,0 -13.89,-7.793 -21.03,-12.883 -7.15,-5.098 -10.84,-7.902 -10.84,-7.902 l 32.46,-112.086 -0.49,-284.809 c 0,-167.1951 76.33,-185.91775 166.87,-185.91775 55.61,0 111.23,9.99215 151.33,21.22265 l 0,142.2261 c -24.59,-9.96 -53.05,-16.203 -82.79,-16.203" /><path
         id="path38"
         style="fill:#231f20;fill-opacity:1;fill-rule:nonzero;stroke:none"
         d="m 5427.12,148.496 c -72.17,-1.973 -62.68,58.762 -62.85,101.356 -0.2,42.597 0.21,223.164 0.21,223.164 l 145.24,0 0.09,131.808 -145.7,-0.265 -0.33,170.257 c -91.47,1.922 -166.58,-55.109 -172.05,-59.375 l 0,-96.546 -0.1,-14.051 c 0,0 -13.92,-7.785 -21.03,-12.879 -7.15,-5.102 -10.84,-7.914 -10.84,-7.914 l 32.44,-112.071 -0.47,-284.792 c 0,-167.2192 76.33,-185.91847 166.85,-185.91847 55.61,0 111.25,9.96877 151.33,21.21877 l 0,142.2307 c -24.57,-9.985 -53.03,-16.223 -82.79,-16.223" /><path
         id="path40"
         style="fill:#231f20;fill-opacity:1;fill-rule:nonzero;stroke:none"
         d="M 371.066,775.996 370.859,374.758 170.453,774.297 C 82.9297,775.91 10.5117,723.566 0,715.598 L 0,17.5195 173.957,17.5 l 0.121,381.18 199.246,-381.2503 2.008,0 167.586,0.0195 0,758.5978 -171.852,-0.051" /></g></g></svg>